<svg width="1266" height="1070" viewBox="0 0 1266 1070" fill="none" xmlns="http://www.w3.org/2000/svg">
<g clip-path="url(#clip0_56_15)">
<path d="M601.406 405.926C541.898 418.042 498.29 476.92 522.97 516.469C547.65 556.019 597.736 580.326 639.068 574.615C680.4 568.903 639.622 502.238 645.555 466.414C651.664 430.454 629.501 400.278 601.406 405.926Z" stroke="#464646" stroke-opacity="0.7" stroke-miterlimit="10"/>
<path d="M538.299 610.158C565.326 646.56 605.48 633.539 646.126 651.185C669.996 661.471 680.486 656.804 689.787 649.891C704.53 638.725 707.214 604.163 707.376 590.98C708.217 550.802 688.075 491.728 701.224 454.637C724.286 388.981 644.869 370.926 604.938 365.777C553.899 359.074 522.011 378.694 510.293 412.55C484.672 488.322 453.974 496.074 538.299 610.158Z" stroke="#464646" stroke-opacity="0.7" stroke-miterlimit="10"/>
<path d="M455.399 496.596C433.643 525.209 477.819 573.066 517.423 663.568C547.423 732.005 621.596 694.119 686.672 725.295C753.82 757.316 753.096 720.921 756.256 667.058C760.024 606.736 728.256 502.015 755.858 439.265C797.264 344.961 658.744 336.317 607.34 321.916C533.091 301.075 502.629 331.211 486.238 374.29C469.656 418.574 470.785 476.478 455.399 496.596Z" stroke="#464646" stroke-opacity="0.7" stroke-miterlimit="10"/>
<path d="M418.76 482.679C378.378 515.64 442.72 583.886 494.639 715.452C533.069 813.113 635.828 753.64 725.661 798.443C820.5 846.036 820.116 792.369 812.782 710.271C805.298 626.174 770.877 499.278 808.322 422.405C868.41 299.271 670.609 299.316 607.283 275.779C509.697 239.502 476.195 278.375 459.875 333.452C443.204 388.804 445.449 460.769 418.76 482.679Z" stroke="#464646" stroke-opacity="0.7" stroke-miterlimit="10"/>
<path d="M605.447 230.754C485.141 179.045 448.096 227.039 431.506 293.624C415.087 360.429 418.948 445.962 380.274 469.827C321.647 506.459 406.068 596.082 470.062 768.341C517.217 895.194 648.29 813.956 762.61 872.458C885.224 934.71 885.537 863.555 867.187 754.416C848.665 645.058 811.484 497.36 858.761 406.446C937.674 254.832 680.639 263.027 605.447 230.754Z" stroke="#464646" stroke-opacity="0.7" stroke-miterlimit="10"/>
<path d="M463.463 827.733C532.403 948.494 665.217 909.992 783.951 961.511C903.031 1013.11 921.436 954.283 931.299 853.445C936.827 796.563 905.981 715.889 885.386 634.967C862.633 545.5 861.156 463.752 923.193 402.232C1044.8 281.82 696.857 208.652 606.099 186.075C479.143 154.385 435.243 209.85 410.231 284.072C385.39 358.512 379.822 448.586 329.463 476.995C254.799 519.101 361.332 648.591 463.463 827.733Z" stroke="#464646" stroke-opacity="0.7" stroke-miterlimit="10"/>
<path d="M458.683 886.729C547.18 1001.81 683.965 1005.55 806.991 1049.27C922.577 1090.36 965.466 1043.46 997.508 950.444C1019.77 885.847 968.322 782.681 933.068 677.427C895.979 566.563 886.747 465.636 990.449 396.239C1141.35 295.604 716.803 151.762 609.681 140.349C476.342 126.17 424.677 191.897 391.394 273.908C358.111 355.918 342.566 450.489 280.221 483.347C190.196 531.491 315.685 700.803 458.683 886.729Z" stroke="#464646" stroke-opacity="0.7" stroke-miterlimit="10"/>
<path d="M456.222 936.947C563.467 1047.45 705.048 1093.75 832.503 1129.93C944.373 1161.71 1014.65 1127.96 1065.6 1041.25C1106.79 970.993 1032.26 843.043 982.074 713.345C930.709 581.047 910.362 455.898 1058.28 383.707C1235.21 297.303 736.471 85.7529 613.593 86.9021C473.51 88.094 415.025 165.875 373.6 255.364C331.999 344.99 307.137 444.105 232.994 481.228C127.199 534.264 270.384 745.745 456.222 936.947Z" stroke="#464646" stroke-opacity="0.7" stroke-miterlimit="10"/>
</g>
<defs>
<clipPath id="clip0_56_15">
<rect width="1236" height="1014" fill="white" transform="translate(761 1428) rotate(-128)"/>
</clipPath>
</defs>
</svg>
