<svg width="693" height="130" viewBox="0 0 693 130" fill="none" xmlns="http://www.w3.org/2000/svg">
<g clip-path="url(#clip0_56_28)">
<path d="M0 80.3616C33.4242 72.745 67.9082 69.4229 102.148 70.3952C128.235 71.1244 171.686 69.9901 192.556 88.4643C203.399 98.1065 209.35 117.31 194.023 126.061C171.686 138.782 154.811 106.857 178.453 94.1362C185.382 90.4089 193.453 89.3556 201.279 88.6263C239.105 85.0611 275.791 89.4366 313.535 91.8674C370.764 95.5947 427.585 96.3239 484.488 88.3022C526.472 82.3062 567.641 78.9031 604 55" stroke="#02E602" stroke-width="2" stroke-miterlimit="10" stroke-dasharray="12 12"/>
</g>
<path d="M635.5 12C634.673 12 634 12.673 634 13.5C634 14.327 634.673 15 635.5 15C636.327 15 637 14.327 637 13.5C637 12.673 636.327 12 635.5 12ZM635.5 14C635.224 14 635 13.7755 635 13.5C635 13.2245 635.224 13 635.5 13C635.776 13 636 13.2245 636 13.5C636 13.7755 635.776 14 635.5 14Z" fill="#02E602"/>
<path d="M683.5 15C684.327 15 685 14.327 685 13.5C685 12.673 684.327 12 683.5 12C682.673 12 682 12.673 682 13.5C682 14.327 682.673 15 683.5 15ZM683.5 13C683.776 13 684 13.2245 684 13.5C684 13.7755 683.776 14 683.5 14C683.224 14 683 13.7755 683 13.5C683 13.2245 683.224 13 683.5 13Z" fill="#02E602"/>
<path d="M637 55.5C637 54.673 636.327 54 635.5 54C634.673 54 634 54.673 634 55.5C634 56.327 634.673 57 635.5 57C636.327 57 637 56.327 637 55.5ZM635 55.5C635 55.2245 635.224 55 635.5 55C635.776 55 636 55.2245 636 55.5C636 55.7755 635.776 56 635.5 56C635.224 56 635 55.7755 635 55.5Z" fill="#02E602"/>
<path d="M682.5 54C681.673 54 681 54.673 681 55.5C681 56.327 681.673 57 682.5 57C683.327 57 684 56.327 684 55.5C684 54.673 683.327 54 682.5 54ZM682.5 56C682.224 56 682 55.7755 682 55.5C682 55.2245 682.224 55 682.5 55C682.776 55 683 55.2245 683 55.5C683 55.7755 682.776 56 682.5 56Z" fill="#02E602"/>
<path d="M670.07 28.1468L681.973 17.4783C682.382 17.6304 682.822 17.7179 683.284 17.7179C683.295 17.7179 683.305 17.7162 683.315 17.7162L689.916 26.1971C690.347 26.6687 690.918 26.9186 691.458 26.9186C691.789 26.9186 692.109 26.8241 692.379 26.6288C692.686 26.4059 693.595 25.5144 692.401 23.4061L690.243 19.6287C689.658 18.4577 689.046 17.3056 688.536 16.8167L686.859 15.1401C686.985 14.7645 687.056 14.3641 687.056 13.9464C687.056 11.8672 685.364 10.1755 683.284 10.1755C683.097 10.1755 682.914 10.1938 682.734 10.2202L676.119 1.72215C675.422 0.961274 674.363 0.775641 673.656 1.28991C673.349 1.51278 672.439 2.40424 673.633 4.51258L675.789 8.28675C676.347 9.40271 676.987 10.6109 677.498 11.102L679.588 13.1915C679.538 13.4359 679.512 13.689 679.512 13.9475C679.512 13.995 679.518 14.0408 679.519 14.0872L670.022 19.8413C669.202 16.9575 666.826 14.7218 663.858 14.1169V13.9539C663.858 13.9183 663.854 13.8833 663.847 13.8482C663.605 12.6394 662.5 11.7954 661.159 11.7954H656.841C655.5 11.7954 654.394 12.6394 654.153 13.8482C654.146 13.8833 654.142 13.9183 654.142 13.9539V14.1169C651.177 14.7213 648.804 16.9532 647.981 19.8435L638.988 14.3943C639.004 14.2518 639.015 14.1077 639.015 13.9604C639.015 13.5481 638.946 13.1521 638.823 12.7803L640.494 11.1096C641.014 10.6109 641.653 9.40271 642.208 8.28945L644.368 4.51042C645.561 2.40424 644.652 1.51278 644.345 1.28991C643.636 0.774562 642.577 0.961274 641.853 1.75507L635.29 10.1922C635.274 10.1922 635.259 10.19 635.243 10.19C633.163 10.19 631.471 11.8818 631.471 13.961C631.471 14.2254 631.499 14.4828 631.551 14.7321L629.472 16.8102C628.955 17.3067 628.342 18.4593 627.758 19.6303L625.598 23.4093C624.405 25.5155 625.314 26.407 625.621 26.6299C625.888 26.8236 626.205 26.918 626.534 26.918C627.08 26.918 627.661 26.6595 628.113 26.1647L634.707 17.6893C634.882 17.7141 635.06 17.7314 635.242 17.7314C635.564 17.7314 635.875 17.6866 636.174 17.6105L647.929 28.1468L648.503 41.338L636.174 52.3886C635.875 52.3125 635.564 52.2677 635.242 52.2677C635.06 52.2677 634.882 52.285 634.706 52.3103L628.085 43.802C627.388 43.0405 626.33 42.856 625.621 43.3697C625.314 43.5926 624.405 44.4841 625.599 46.5924L627.756 50.3687C628.341 51.5397 628.954 52.6924 629.464 53.1818L631.551 55.268C631.499 55.5168 631.471 55.7747 631.471 56.0392C631.471 58.1184 633.163 59.8101 635.243 59.8101C635.258 59.8101 635.273 59.8079 635.29 59.8079L641.882 68.278C642.313 68.7496 642.883 69 643.424 69C643.755 69 644.075 68.9056 644.345 68.7102C644.652 68.4868 645.561 67.5959 644.367 65.4875L642.211 61.7134C641.654 60.5974 641.014 59.3892 640.502 58.8981L638.823 57.2193C638.946 56.8475 639.015 56.4514 639.015 56.0392C639.015 55.8924 639.004 55.7483 638.988 55.6053L649.343 49.3305C650.24 51.0719 652.052 52.2677 654.142 52.2677H663.858C665.95 52.2677 667.764 51.0686 668.66 49.3321L679 55.5972C678.983 55.7424 678.972 55.8886 678.972 56.0381C678.972 56.4541 679.042 56.8535 679.167 57.228L677.506 58.8889C676.986 59.3876 676.347 60.5958 675.792 61.7091L673.631 65.4881C672.438 67.5943 673.348 68.4857 673.655 68.7086C673.922 68.9023 674.239 68.9968 674.568 68.9968C675.114 68.9968 675.695 68.7383 676.146 68.2434L682.71 59.8069C682.721 59.8069 682.732 59.8085 682.744 59.8085C684.824 59.8085 686.516 58.1167 686.516 56.0375C686.516 55.6242 686.447 55.227 686.323 54.8547L687.982 53.1959C688.5 52.6994 689.113 51.5467 689.697 50.3757L691.857 46.5967C693.05 44.4905 692.14 43.5991 691.833 43.3762C691.125 42.8609 690.066 43.0476 689.342 43.8414L682.785 52.2693C682.771 52.2693 682.758 52.2671 682.744 52.2671C682.426 52.2671 682.118 52.3109 681.823 52.3853L669.497 41.3386L670.07 28.1468ZM687.78 17.5884C688.235 18.0244 688.992 19.5407 689.277 20.1117C689.281 20.1208 689.299 20.1565 689.305 20.1651L691.463 23.9409C692.023 24.9295 692.008 25.5652 691.744 25.7567C691.519 25.9197 691.051 25.8415 690.739 25.5026L684.518 17.5069C685.257 17.25 685.89 16.7714 686.34 16.1492L687.78 17.5884ZM685.976 13.9475C685.976 15.4315 684.769 16.6391 683.284 16.6391C681.799 16.6391 680.592 15.432 680.592 13.9475C680.592 12.463 681.799 11.2558 683.283 11.2558C684.768 11.2558 685.976 12.463 685.976 13.9475ZM678.254 10.3309C677.799 9.89431 677.041 8.37633 676.756 7.80486C676.751 7.79569 676.735 7.76331 676.729 7.75468L674.571 3.97889C674.011 2.99028 674.027 2.3546 674.29 2.16303C674.512 2.00006 674.981 2.07723 675.294 2.4172L681.632 10.5624C680.95 10.8964 680.383 11.4279 680.008 12.0847L678.254 10.3309ZM679.737 15.2172C679.981 15.8977 680.415 16.487 680.975 16.923L670.136 26.638L670.335 22.0484C670.335 21.6793 670.302 21.3188 670.254 20.9627L679.737 15.2172ZM656.841 12.8747H661.159C661.829 12.8747 662.571 13.219 662.768 13.9809C662.592 13.9691 662.417 13.9539 662.239 13.9539H655.761C655.582 13.9539 655.408 13.9691 655.232 13.9809C655.429 13.219 656.171 12.8747 656.841 12.8747ZM642.677 2.45011C643.018 2.07777 643.487 2.0006 643.71 2.16303C643.973 2.35406 643.989 2.99028 643.43 3.97673L641.27 7.75414C641.265 7.76277 641.249 7.79515 641.244 7.80432C640.959 8.37579 640.201 9.89431 639.738 10.3384L638.307 11.7695C637.859 11.1457 637.227 10.6649 636.49 10.4059L642.677 2.45011ZM627.288 25.4691C626.947 25.8415 626.478 25.9186 626.256 25.7562C625.992 25.5652 625.977 24.9289 626.536 23.9425L628.695 20.1651C628.7 20.1565 628.718 20.1208 628.723 20.1117C629.008 19.5407 629.765 18.0244 630.227 17.5808L631.974 15.8346C632.352 16.4897 632.919 17.0196 633.602 17.3509L627.288 25.4691ZM632.55 13.9604C632.55 12.4764 633.758 11.2687 635.242 11.2687C636.727 11.2687 637.935 12.4759 637.935 13.9604C637.935 15.4449 636.727 16.6521 635.242 16.6521C633.758 16.6521 632.55 15.4449 632.55 13.9604ZM637.265 17.1383C637.89 16.739 638.391 16.1627 638.693 15.4779L647.749 20.9648C647.699 21.328 647.664 21.6955 647.665 22.0721L647.863 26.638L637.265 17.1383ZM630.219 52.4107C629.765 51.9741 629.008 50.4572 628.722 49.8863C628.718 49.8771 628.7 49.8426 628.695 49.834L626.537 46.0582C625.977 45.0696 625.992 44.4339 626.256 44.2423C626.478 44.0804 626.947 44.157 627.26 44.497L633.602 52.6481C632.919 52.98 632.351 53.5094 631.974 54.1645L630.219 52.4107ZM632.55 56.0386C632.55 54.5546 633.758 53.3469 635.242 53.3469C636.727 53.3469 637.935 54.5541 637.935 56.0386C637.935 57.5231 636.727 58.7303 635.242 58.7303C633.758 58.7303 632.55 57.5226 632.55 56.0386ZM639.746 59.6682C640.201 60.1047 640.959 61.6227 641.244 62.1942C641.249 62.2034 641.265 62.2357 641.27 62.2444L643.429 66.0202C643.988 67.0088 643.973 67.6444 643.71 67.836C643.487 67.9974 643.019 67.9213 642.705 67.5818L636.49 59.5932C637.227 59.3336 637.86 58.8533 638.307 58.2295L639.746 59.6682ZM638.693 54.5212C638.391 53.8364 637.89 53.2601 637.265 52.8607L648.564 42.7335L648.744 46.8714C648.744 47.37 648.817 47.8514 648.945 48.31L638.693 54.5212ZM654.8 51.1884L655.205 49.161C655.381 48.4595 656.068 47.9506 656.841 47.9506H661.159C661.931 47.9506 662.619 48.4595 662.789 49.1357L663.199 51.1884H654.8ZM664.296 51.1663L663.841 48.8988C663.548 47.724 662.419 46.8714 661.159 46.8714H656.841C655.58 46.8714 654.452 47.724 654.153 48.9241L653.704 51.1663C651.528 50.9461 649.823 49.1028 649.823 46.8482L648.998 27.8678C648.998 27.8672 648.998 27.8661 648.998 27.8656L648.744 22.0484C648.744 21.6102 648.789 21.1823 648.867 20.7662C648.867 20.7657 648.867 20.7657 648.867 20.7652C649.473 17.5085 652.331 15.0332 655.761 15.0332H662.239C665.669 15.0332 668.528 17.5096 669.133 20.7506C669.134 20.7608 669.136 20.77 669.138 20.7803C669.212 21.185 669.256 21.6 669.256 22.0252L668.176 46.8714C668.176 49.1038 666.472 50.9461 664.296 51.1663ZM675.323 67.5489C674.981 67.9213 674.512 67.9979 674.29 67.836C674.027 67.645 674.011 67.0088 674.57 66.0223L676.729 62.2449C676.735 62.2363 676.751 62.2039 676.756 62.1947C677.041 61.6233 677.799 60.1047 678.262 59.6606L679.686 58.2371C680.135 58.8603 680.768 59.3395 681.507 59.5969L675.323 67.5489ZM682.744 58.7303C681.259 58.7303 680.052 57.5231 680.052 56.0386C680.052 54.5541 681.259 53.3469 682.744 53.3469C684.229 53.3469 685.436 54.5541 685.436 56.0386C685.436 57.5231 684.229 58.7303 682.744 58.7303ZM690.166 44.5375C690.507 44.1646 690.975 44.088 691.198 44.2504C691.462 44.4414 691.477 45.0777 690.918 46.0641L688.759 49.8415C688.754 49.8501 688.736 49.8858 688.731 49.8949C688.446 50.4659 687.689 51.9822 687.227 52.4258L685.806 53.8456C685.358 53.2212 684.725 52.7409 683.986 52.4819L690.166 44.5375ZM680.73 52.8559C680.102 53.2541 679.6 53.8305 679.296 54.5152L669.058 48.3117C669.183 47.8589 669.255 47.3857 669.255 46.8951L669.436 42.734L680.73 52.8559Z" fill="#02E602"/>
<path d="M663.321 19H653.679C652.202 19 651 20.2461 651 21.7778V26.2222C651 27.7539 652.202 29 653.679 29H663.321C664.798 29 666 27.7539 666 26.2222V21.7778C666 20.2461 664.798 19 663.321 19ZM664.929 26.2222C664.929 27.1411 664.207 27.8889 663.321 27.8889H653.679C652.792 27.8889 652.071 27.1411 652.071 26.2222V21.7778C652.071 20.8589 652.792 20.1111 653.679 20.1111H663.321C664.207 20.1111 664.929 20.8589 664.929 21.7778V26.2222Z" fill="#02E602"/>
<defs>
<clipPath id="clip0_56_28">
<rect width="604" height="75" fill="white" transform="translate(0 55)"/>
</clipPath>
</defs>
</svg>
